<?xml version="1.0" encoding="utf-8"?>
<!-- Generator: Adobe Illustrator 23.0.4, SVG Export Plug-In . SVG Version: 6.00 Build 0)  -->
<svg version="1.1" id="Layer_1" xmlns="http://www.w3.org/2000/svg" xmlns:xlink="http://www.w3.org/1999/xlink" x="0px" y="0px"
	 viewBox="0 0 122.1 40.9" style="enable-background:new 0 0 122.1 40.9;" xml:space="preserve">
<style type="text/css">
	.st0{stroke:#A5A5A4;stroke-width:0.9;stroke-miterlimit:10;}
	.st1{fill:#FFFFFF;}
	.st2{font-family:'Helvetica';}
	.st3{font-size:9px;}
	.st4{font-family:'Helvetica-Bold';}
	.st5{font-size:7.5px;}
</style>
<title>riot_pc_vn-vn</title>
<g>
	<g id="EN">
		<path class="st0" d="M7.3,0.4h106.3c3.8,0,6.9,3.1,6.9,6.9v26.3c0,3.8-3.1,6.9-6.9,6.9H7.3c-3.8,0-6.9-3.1-6.9-6.9V7.3
			C0.4,3.5,3.5,0.4,7.3,0.4z"/>
		<path class="st1" d="M19.5,14.7h-5.2v-2h5.2v-1h3.2V9.6h-9.9v21.8h9.9v-4.9h-3.2V14.7z M17.3,30.1h-2v-0.7h2V30.1z M16.6,25.1
			c0-0.6,0.5-1.1,1.1-1.1c0.6,0,1.1,0.5,1.1,1.1c0,0.6-0.5,1.1-1.1,1.1C17.1,26.2,16.6,25.7,16.6,25.1L16.6,25.1z M20.2,29.3V30h-2
			v-0.7H20.2z"/>
		<rect x="21.1" y="13.2" class="st1" width="17.2" height="11.8"/>
		<polygon class="st1" points="32.1,29.4 31.5,26.6 28.2,26.6 28.2,26.9 27.6,29.4 25.2,29.4 25.2,31.2 34.6,31.2 34.6,29.4 		"/>
		<text transform="matrix(1 0 0 1 44.99 18.24)" class="st1 st2 st3">Sẽ có trên</text>
		<text transform="matrix(1 0 0 1 44.99 29.03)" class="st1 st4 st5">Phiên bản máy tính</text>
	</g>
</g>
</svg>
